<svg width="45" height="34" viewBox="0 0 45 34" fill="none" xmlns="http://www.w3.org/2000/svg">
<g clip-path="url(#clip0_3_6)">
<path d="M6.03712 25V8.2H9.20513V22.12H16.8851V25H6.03712ZM18.5649 25V22.216H20.7729V10.984H18.5649V8.2H27.2049C28.2289 8.2 29.1169 8.376 29.8689 8.728C30.6369 9.064 31.2289 9.552 31.6449 10.192C32.0769 10.816 32.2929 11.568 32.2929 12.448V12.688C32.2929 13.456 32.1489 14.088 31.8609 14.584C31.5729 15.064 31.2289 15.44 30.8289 15.712C30.4449 15.968 30.0769 16.152 29.7249 16.264V16.696C30.0769 16.792 30.4609 16.976 30.8769 17.248C31.2929 17.504 31.6449 17.88 31.9329 18.376C32.2369 18.872 32.3889 19.52 32.3889 20.32V20.56C32.3889 21.488 32.1729 22.288 31.7409 22.96C31.3089 23.616 30.7089 24.12 29.9409 24.472C29.1889 24.824 28.3089 25 27.3009 25H18.5649ZM23.9409 22.12H26.9169C27.6049 22.12 28.1569 21.952 28.5729 21.616C29.0049 21.28 29.2209 20.8 29.2209 20.176V19.936C29.2209 19.312 29.0129 18.832 28.5969 18.496C28.1809 18.16 27.6209 17.992 26.9169 17.992H23.9409V22.12ZM23.9409 15.112H26.8689C27.5249 15.112 28.0609 14.944 28.4769 14.608C28.9089 14.272 29.1249 13.808 29.1249 13.216V12.976C29.1249 12.368 28.9169 11.904 28.5009 11.584C28.0849 11.248 27.5409 11.08 26.8689 11.08H23.9409V15.112ZM36.9744 25.336C36.3344 25.336 35.7904 25.128 35.3424 24.712C34.9104 24.28 34.6944 23.728 34.6944 23.056C34.6944 22.384 34.9104 21.84 35.3424 21.424C35.7904 20.992 36.3344 20.776 36.9744 20.776C37.6304 20.776 38.1744 20.992 38.6064 21.424C39.0384 21.84 39.2544 22.384 39.2544 23.056C39.2544 23.728 39.0384 24.28 38.6064 24.712C38.1744 25.128 37.6304 25.336 36.9744 25.336Z" fill="#FF36EB"/>
</g>
<defs>
<clipPath id="clip0_3_6">
<rect width="45" height="34" fill="white"/>
</clipPath>
</defs>
</svg>
